<svg width="175" height="23" viewBox="0 0 175 23" fill="none" xmlns="http://www.w3.org/2000/svg">
<path d="M0.064 23L4.544 0.599998H14.496C17.504 0.599998 19.8187 1.25067 21.44 2.552C23.0827 3.85333 23.904 5.67733 23.904 8.024C23.904 9.90133 23.4347 11.5547 22.496 12.984C21.5787 14.4133 20.2667 15.5227 18.56 16.312C16.8747 17.1013 14.88 17.496 12.576 17.496H5.344L9.376 14.2L7.616 23H0.064ZM9.184 15.096L6.528 11.672H12.96C14.0053 11.672 14.816 11.416 15.392 10.904C15.968 10.3707 16.256 9.63467 16.256 8.696C16.256 7.88533 16 7.30933 15.488 6.968C14.9973 6.60533 14.3147 6.424 13.44 6.424H7.584L11.616 2.904L9.184 15.096ZM23.5328 23L28.0128 0.599998H35.5648L32.2688 17.144H42.3808L41.1968 23H23.5328ZM41.1632 23L55.4353 0.599998H62.8593L68.1713 23H60.6513L57.0353 4.088H59.9792L49.1313 23H41.1632ZM47.7552 19.096L50.7633 13.656H61.0673L61.8993 19.096H47.7552ZM69.3765 23L73.8565 0.599998H80.0645L88.4805 14.232H85.8565L88.5765 0.599998H95.9365L91.4565 23H85.2485L76.8325 9.368H79.4565L76.7365 23H69.3765ZM99.9593 23L103.255 6.456H96.6953L97.8793 0.599998H118.551L117.367 6.456H110.807L107.511 23H99.9593ZM116.033 23L120.513 0.599998H128.065L123.585 23H116.033ZM136.82 10.136H146.676L145.524 15.832H135.7L136.82 10.136ZM134.772 23H127.22L131.7 0.599998H149.908L148.756 6.296H138.1L134.772 23ZM153.574 23L155.526 13.176L156.358 17.688L149.606 0.599998H157.19L161.798 12.344H157.03L166.47 0.599998H174.054L160.518 17.688L163.078 13.176L161.126 23H153.574Z" fill="#212531"/>
</svg>
