<svg width="18" height="21" viewBox="0 0 18 21" fill="none" xmlns="http://www.w3.org/2000/svg">
<path d="M15 20.5C14.1667 20.5 13.4583 20.2083 12.875 19.625C12.2917 19.0417 12 18.3333 12 17.5C12 17.3833 12.0083 17.2623 12.025 17.137C12.0417 17.0123 12.0667 16.9 12.1 16.8L5.05 12.7C4.76667 12.95 4.45 13.1457 4.1 13.287C3.75 13.429 3.38333 13.5 3 13.5C2.16667 13.5 1.45833 13.2083 0.875 12.625C0.291667 12.0417 0 11.3333 0 10.5C0 9.66667 0.291667 8.95833 0.875 8.375C1.45833 7.79167 2.16667 7.5 3 7.5C3.38333 7.5 3.75 7.57067 4.1 7.712C4.45 7.854 4.76667 8.05 5.05 8.3L12.1 4.2C12.0667 4.1 12.0417 3.98767 12.025 3.863C12.0083 3.73767 12 3.61667 12 3.5C12 2.66667 12.2917 1.95833 12.875 1.375C13.4583 0.791667 14.1667 0.5 15 0.5C15.8333 0.5 16.5417 0.791667 17.125 1.375C17.7083 1.95833 18 2.66667 18 3.5C18 4.33333 17.7083 5.04167 17.125 5.625C16.5417 6.20833 15.8333 6.5 15 6.5C14.6167 6.5 14.25 6.429 13.9 6.287C13.55 6.14567 13.2333 5.95 12.95 5.7L5.9 9.8C5.93333 9.9 5.95833 10.0123 5.975 10.137C5.99167 10.2623 6 10.3833 6 10.5C6 10.6167 5.99167 10.7373 5.975 10.862C5.95833 10.9873 5.93333 11.1 5.9 11.2L12.95 15.3C13.2333 15.05 13.55 14.854 13.9 14.712C14.25 14.5707 14.6167 14.5 15 14.5C15.8333 14.5 16.5417 14.7917 17.125 15.375C17.7083 15.9583 18 16.6667 18 17.5C18 18.3333 17.7083 19.0417 17.125 19.625C16.5417 20.2083 15.8333 20.5 15 20.5Z" fill="white"/>
</svg>
