<svg width="92" height="68" viewBox="0 0 92 68" fill="none" xmlns="http://www.w3.org/2000/svg">
<path d="M41.8333 67.3333H23.0833C16.7638 67.3333 11.3652 65.1458 6.88746 60.7708C2.4069 56.3958 0.166626 51.0486 0.166626 44.7291C0.166626 39.3125 1.79857 34.4861 5.06246 30.25C8.32635 26.0138 12.5972 23.3055 17.875 22.125C19.6111 15.7361 23.0833 10.5625 28.2916 6.60413C33.5 2.64579 39.4027 0.666626 46 0.666626C54.125 0.666626 61.0166 3.49579 66.675 9.15413C72.3361 14.8152 75.1666 21.7083 75.1666 29.8333C79.9583 30.3888 83.9347 32.4541 87.0958 36.0291C90.2541 39.6069 91.8333 43.7916 91.8333 48.5833C91.8333 53.7916 90.0111 58.2194 86.3666 61.8666C82.7194 65.5111 78.2916 67.3333 73.0833 67.3333H50.1666V37.5416L56.8333 44L62.6666 38.1666L46 21.5L29.3333 38.1666L35.1666 44L41.8333 37.5416V67.3333Z" fill="#A2A7AD"/>
</svg>
